<?xml version="1.0" encoding="UTF-8" standalone="no"?>
<!-- Created with Inkscape (http://www.inkscape.org/) -->
<!--
     Copyright 2018 Nafundi

     Licensed under the Apache License, Version 2.0 (the "License");
     you may not use this file except in compliance with the License.
     You may obtain a copy of the License at
 
     http://www.apache.org/licenses/LICENSE-2.0
 
     Unless required by applicable law or agreed to in writing, software
     distributed under the License is distributed on an "AS IS" BASIS,
     WITHOUT WARRANTIES OR CONDITIONS OF ANY KIND, either express or implied.
     See the License for the specific language governing permissions and
     limitations under the License.
-->
<svg
   xmlns="http://www.w3.org/2000/svg"
   width="210mm"
   height="297mm"
   viewBox="0 0 210 297">
	<g
       fill="grey"
       transform="matrix(1.3043672,0,0,1.3043672,-23.099163,-42.949928)">
		<path
	 id="head"
         d="m 98.131693,34.34351 4e-4,3.95e-4 c -8.23403,0.08974 -8.62454,6.202075 -9.79159,8.521435 -0.64175,1.77975 -1.09728,3.82893 -1.00075,5.25097 0.18115,2.66843 0.0551,5.13727 0.0551,5.13727 0,0 -0.57408,-0.56217 -1.20795,0.0321 -0.33825,1.35334 0.12522,2.55339 0.5289,3.17816 0.72968,1.12735 0.34613,2.60102 1.29432,2.82675 0.74446,0.17726 0.65615,-0.62059 1.25153,0.11013 0.59827,0.69802 0.24784,2.70022 1.74359,6.19032 2.21214,2.75616 5.47077,5.58255 8.46082,5.64438 3.788457,-0.17437 6.373877,-3.16078 8.461617,-5.59961 1.49581,-3.49008 1.14524,-5.4923 1.74359,-6.19032 0.59524,-0.73072 0.50709,0.0671 1.25153,-0.11014 0.94821,-0.22576 0.56511,-1.69982 1.29471,-2.82714 0.40368,-0.62479 0.86676,-1.82442 0.52851,-3.17776 -0.63395,-0.59427 -1.20756,-0.0321 -1.20756,-0.0321 0,0 -0.12634,-2.46884 0.0547,-5.13726 0.0965,-1.42203 -0.35854,-3.47125 -1.00035,-5.25098 -1.20457,-2.39413 -1.58193,-8.829332 -10.612476,-8.510737 1.259856,-0.0534 -1.027301,-0.04477 -1.027301,-0.04477 -0.28226,-0.01005 -0.55564,-0.01369 -0.82128,-0.01109 z" />
		<path
         id="neck"
         d="m 93.120803,69.98981 c -0.17338,1.15765 -0.34943,2.62033 -0.34943,2.82199 0,0.23919 -0.27728,0.40959 -0.73531,0.58318 0.0142,0.019 0.0298,0.0389 0.044,0.0578 0.79442,1.06369 1.54202,2.02861 2.58864,2.68491 2.64921,1.25147 7.227907,1.3204 9.585177,0 1.04663,-0.6563 1.79383,-1.62122 2.58825,-2.68491 0.006,-0.009 0.0134,-0.0175 0.0198,-0.0262 -0.4375,-0.16918 -0.70045,-0.33687 -0.70045,-0.5701 0,-0.20391 -0.18012,-1.69858 -0.35537,-2.86161 -4.65688,2.94119 -7.762127,2.95422 -12.685217,-0.005 z" />
		<path
         id="left_proximal_arm"
         d="m 118.0062,79.11184 c -1.06449,0.29213 -1.74455,0.82281 -2.22058,1.58618 -0.48353,0.77525 -0.74288,1.82169 -0.80127,3.08583 -0.11721,2.52826 0.5774,5.87502 1.48403,9.36437 0.90661,3.48936 2.01622,7.12798 2.68337,10.34777 0.48231,2.32772 0.76412,4.43874 0.49552,6.16948 0.63273,3.17139 2.13904,11.06711 2.56995,14.94563 0.15572,1.40164 0.30726,3.19331 0.51333,5.25369 0.36356,-0.14957 0.60005,-0.34524 0.78963,-0.59405 0.47509,-0.62358 0.62442,-1.74942 0.83836,-3.16435 0.21402,-1.41494 0.53786,-3.09664 1.62691,-4.72545 1.07135,-1.60237 2.87401,-3.11948 5.90189,-4.32447 -0.67295,-5.10852 -1.15421,-10.83686 -1.22771,-15.24735 -0.13295,-7.97736 -1.19635,-15.35649 -5.71686,-18.68039 -2.41232,-1.77375 -4.77051,-2.9395 -6.93657,-4.01689 z" />
		<path
         id="right_proximal_arm"
         d="m 80.809003,79.12675 c -2.13302,1.06084 -4.44953,2.21647 -6.81695,3.95725 -4.52051,3.32392 -5.5839,10.70303 -5.71686,18.68041 -0.0737,4.42397 -0.55734,10.17431 -1.23354,15.29461 3.02393,1.20456 4.82514,2.72071 5.89574,4.32192 1.08904,1.62881 1.41143,3.31051 1.62543,4.72545 0.21395,1.41493 0.36286,2.54077 0.83798,3.16435 0.19105,0.25081 0.43011,0.44769 0.79874,0.59768 0.20859,-2.08107 0.36109,-3.8893 0.51806,-5.30203 0.40984,-3.68842 1.79786,-11.04171 2.47797,-14.48574 -0.39016,-1.80314 -0.10208,-4.06732 0.41954,-6.58466 0.66714,-3.21979 1.77567,-6.85841 2.68228,-10.34777 0.90662,-3.48935 1.60123,-6.83611 1.48402,-9.36437 -0.0586,-1.26414 -0.31781,-2.31058 -0.80127,-3.08583 -0.46842,-0.75116 -1.13581,-1.27626 -2.17114,-1.57127 z" />
		<path
         id="left_distal_arm"
         d="m 132.06148,118.32529 c -2.67325,1.11065 -4.15721,2.41857 -5.04429,3.74531 -0.9332,1.39571 -1.22224,2.84587 -1.43022,4.2212 -0.20795,1.37532 -0.29077,2.69776 -1.07865,3.73185 -0.37872,0.49705 -0.93328,0.88675 -1.64616,1.11103 0.51159,4.79908 1.35668,10.84429 3.21053,17.0095 2.85861,9.50636 2.26022,13.36232 1.79486,14.22652 -0.46531,0.86422 -2.52614,3.72281 -2.79208,6.11603 -0.26594,2.39318 -1.19608,6.84704 -1.19608,7.17942 0,0.33239 -0.19994,1.72855 1.66143,0.59842 1.86142,-1.13014 1.19664,-4.91958 2.39325,-4.91958 1.19661,0 2.32703,-0.0663 2.19404,0.66494 -0.13296,0.73126 -0.33239,3.12446 -0.99722,3.72277 -0.66476,0.5983 -3.92243,3.52323 -4.91958,3.5897 -0.99718,0.0665 -1.32959,3.25737 2.72554,0.86417 4.0552,-2.3932 6.31545,-6.18241 6.98021,-6.91367 0.66475,-0.73125 0.19964,-2.79184 -0.13269,-4.32083 -0.33242,-1.52901 -0.66459,-16.42034 -0.66459,-19.8772 0,-3.45686 2.19352,-16.75248 0.66459,-21.87129 -0.61267,-2.05099 -1.2128,-5.26184 -1.72289,-8.87829 z" />
		<path
         id="right_distal_arm"
         d="m 66.866793,118.32782 c -0.50868,3.59718 -1.10637,6.78896 -1.71633,8.83105 -1.52902,5.11881 0.66457,18.41443 0.66457,21.87129 0,3.45686 -0.33224,18.34821 -0.66457,19.87721 -0.33241,1.52898 -0.79745,3.58957 -0.1327,4.32082 0.66483,0.73126 2.92506,4.52045 6.9802,6.91367 4.05515,2.39318 3.72272,-0.79768 2.72556,-0.86417 -0.99717,-0.0665 -4.25478,-2.99142 -4.91959,-3.58972 -0.66476,-0.59831 -0.86426,-2.99151 -0.99722,-3.72277 -0.13298,-0.73126 0.99742,-0.66493 2.19403,-0.66493 1.19661,0 0.53189,3.78941 2.39326,4.91959 1.86137,1.13009 1.66144,-0.26603 1.66144,-0.59842 0,-0.33237 -0.93015,-4.78621 -1.19609,-7.17942 -0.26586,-2.39322 -2.3267,-5.25183 -2.79208,-6.11603 -0.46539,-0.8642 -1.06367,-4.72016 1.79486,-14.22652 1.84772,-6.1447 2.69333,-12.17047 3.20544,-16.96189 -0.7169,-0.22383 -1.27284,-0.61489 -1.65308,-1.11393 -0.78787,-1.03409 -0.8707,-2.35653 -1.07866,-3.73185 -0.20795,-1.37533 -0.49736,-2.82549 -1.43056,-4.2212 -0.88645,-1.32579 -2.36884,-2.63263 -5.03848,-3.74278 z" />
		<path
         id="lungs"
         d="m 93.885603,84.24556 c -0.2501,0.004 -0.92759,0.34469 -1.88683,1.48003 -1.67796,3.28516 -2.26589,5.78194 -2.76151,8.25372 -0.49929,2.49018 -0.91113,4.97362 -2.27152,8.06322 -0.84407,1.91706 -1.28884,3.3552 -1.42912,4.3637 -0.14035,1.00852 0.0218,1.52871 0.24468,1.78796 0.22267,0.25927 0.61164,0.39766 1.2695,0.38318 0.64695,-0.0143 1.49244,-0.19439 2.41109,-0.4697 2.00425,-1.01397 3.32728,-0.85443 4.10199,-0.84127 0.39123,0.007 0.59729,-0.0123 0.86596,-0.17451 0.26438,-0.15965 0.62965,-0.52951 1.10881,-1.27898 0.90655,-1.72496 1.02629,-3.45483 1.02636,-5.021 0,-1.57247 -0.20852,-2.9802 0.49584,-4.09178 0.55768,-0.8801 1.09333,-1.36774 1.52951,-1.63234 0.43731,-0.25609 0.78189,-0.28595 1.189161,-0.17378 0.241936,0.0667 0.506176,0.14078 0.560626,0.17378 0.43604,0.2646 0.97282,0.75224 1.5305,1.63234 0.70442,1.11158 0.49618,2.51931 0.49625,4.09178 0,1.56617 0.11827,3.29604 1.02489,5.021 0.47916,0.74947 0.84436,1.11933 1.10881,1.27898 0.2686,0.1622 0.47445,0.18083 0.86561,0.17451 0.77485,-0.0132 2.09816,-0.17259 4.10269,0.84162 0.91844,0.27519 1.76364,0.45511 2.41039,0.46935 0.65792,0.0145 1.04718,-0.12391 1.26984,-0.38318 0.22281,-0.25925 0.38462,-0.77944 0.24433,-1.78796 -0.14035,-1.0085 -0.58356,-2.44664 -1.42771,-4.3637 -1.36039,-3.0896 -1.7732,-5.57304 -2.27257,-8.06322 -0.49556,-2.47146 -1.08299,-4.96775 -2.76045,-8.25227 -0.96009,-1.13689 -1.63624,-1.47796 -1.88641,-1.48148 -0.12748,-0.002 -0.1991,0.0261 -0.32721,0.14833 -0.12811,0.12228 -0.28035,0.35145 -0.41774,0.65985 -0.27486,0.61684 -0.4931,1.52369 -0.69114,2.41945 -0.19797,0.89575 -0.36998,1.77192 -0.66236,2.45142 -0.58258,1.3539 -1.45163,2.04838 -2.18603,2.3511 -0.784206,0.17181 -1.872977,0.27901 -2.593227,0 -0.73433,-0.30272 -1.60233,-0.9972 -2.18491,-2.3511 -0.29239,-0.6795 -0.46545,-1.55567 -0.66349,-2.45142 -0.19797,-0.89576 -0.41522,-1.80261 -0.69008,-2.41945 -0.1374,-0.3084 -0.28957,-0.53757 -0.41768,-0.65985 -0.12811,-0.12229 -0.19937,-0.15044 -0.32685,-0.14833 z" />
		<path
           id="left_proximal_leg"
           d="m -499.17188,508.56836 c -11.52418,7.85302 -26.2042,24.8574 -37.55078,61.80664 -9.6672,31.48051 -23.41831,50.91814 -34.83789,62.4707 -8.79903,8.90147 -16.30675,13.15675 -19.3125,14.6543 4.30482,16.49477 13.70559,45.07609 16.1543,60.72852 1.3904,10.66 -1.85473,58.86301 6.95117,82.0371 6.7436,17.74629 9.94746,24.90494 11.28906,35.39649 8.50731,-3.81786 17.67936,-9.76766 23.71875,-17.91406 7.50771,-10.12635 16.54733,-13.12045 23.80665,-13.20313 0.48421,-0.01 0.95858,0.002 1.42578,0.0215 2.5459,0.10451 4.81127,0.52156 6.73437,0.99414 -0.7034,-6.66231 -1.00549,-12.52626 -0.55859,-16.9961 1.6384,-16.38661 12.77987,-70.46178 13.10937,-85.86523 0.32582,-15.4033 7.20723,-63.90676 4.25781,-99.95703 -1.8897,-23.09423 -1.63515,-45.0814 -3.09765,-61.3711 0.5794,-5.65093 0.88376,-11.47707 0.88476,-17.47265 0.75319,-12.69218 -5.00061,-10.69234 -12.97461,-5.33008 z"
           transform="translate(202.24161,2.1690656) matrix(0.20284421,0,0,0.20284421,17.709095,32.927789)" />
		<path
         id="left_distal_leg"
         d="m 116.8283,197.49892 c -1.16192,0.002 -2.52058,0.39846 -3.84021,2.17839 -1.50659,2.03214 -3.72529,3.37568 -5.69287,4.1965 0.0164,0.28987 0.0301,0.5906 0.0385,0.91796 0.0941,3.66656 -1.128,2.63223 0.56425,11.84562 1.69224,9.21338 2.95167,17.19709 2.95167,17.19709 0,0 0.99703,4.25477 0.3323,7.17978 -0.66475,2.92509 -2.92556,7.11302 -0.0669,8.64199 2.85853,1.52902 6.84727,2.79199 7.44554,4.52043 0.59834,1.72841 2.46012,3.12459 2.92551,3.45701 0.4653,0.33238 2.5924,2.72576 4.32081,2.52632 1.72847,-0.19943 4.65322,-0.46552 3.922,-2.99166 -0.7313,-2.52619 0,-3.45685 -2.45943,-5.11882 -2.45971,-1.66196 -5.85008,-4.65333 -6.9802,-6.31527 -1.13007,-1.66194 -2.32651,-3.05828 -2.52596,-4.5873 -0.19944,-1.52898 -0.0669,-10.63638 0.66457,-14.75803 0.73123,-4.12165 2.32657,-12.23189 1.79487,-17.61662 -0.34077,-3.45006 -1.14349,-7.57847 -1.59019,-10.97673 -0.007,-0.002 -0.0115,-0.004 -0.0189,-0.006 -0.41077,-0.12551 -0.95053,-0.261 -1.55563,-0.28576 -0.0756,-0.004 -0.1523,-0.005 -0.22974,-0.005 z" />
		<path
           id="right_proximal_leg"
           d="m -596.95508,647.27539 c -3.10717,-1.56475 -10.54364,-5.84135 -19.19531,-14.59375 -11.41955,-11.55256 -25.16877,-30.98042 -34.83594,-62.46094 -11.34659,-36.94924 -26.01875,-53.95362 -37.54297,-61.80664 -4.62564,-3.15208 -8.74509,-4.82922 -12.01562,-5.73633 -0.55827,4.05026 -0.95646,7.8855 -1.11914,11.32813 9.8e-4,5.95625 0.30318,11.74515 0.875,17.36133 -1.4519,16.27924 -1.20226,38.22309 -3.08789,61.26758 -2.94936,36.05022 3.93204,84.55373 4.25781,99.95703 0.32932,15.40344 11.47088,69.47867 13.10937,85.86523 0.44715,4.46984 0.14496,10.33384 -0.55859,16.99609 1.9231,-0.47277 4.18843,-0.88962 6.73438,-0.99414 0.46735,-0.0197 0.94156,-0.0313 1.42578,-0.0215 7.25931,0.0828 16.29895,3.07678 23.80664,13.20312 6.03941,8.14641 15.21348,14.09621 23.7207,17.91407 1.34167,-10.49155 4.54351,-17.65216 11.28711,-35.39844 8.80592,-23.17409 5.56079,-71.3752 6.95117,-82.03516 2.4535,-15.6827 11.89335,-44.36444 16.1875,-60.8457 z"
           transform=" translate(202.24161,2.1690656)matrix(0.20284421,0,0,0.20284421,17.709095,32.927789)" />
		<path
         id="right_distal_leg"
         d="m 82.092713,197.49892 c -0.0775,-1.2e-4 -0.15412,0.002 -0.22977,0.005 -0.60508,0.0248 -1.14455,0.16025 -1.55526,0.28576 -0.004,0.002 -0.007,0.002 -0.011,0.004 -0.4478,3.39013 -1.24538,7.49891 -1.58473,10.93455 -0.53178,5.38471 1.06356,13.49499 1.79486,17.61663 0.73122,4.12165 0.86402,13.22902 0.66457,14.75804 -0.19937,1.529 -1.39591,2.92536 -2.52596,4.5873 -1.13019,1.66197 -4.52049,4.65329 -6.9802,6.31525 -2.45971,1.66197 -1.7282,2.59262 -2.45943,5.11882 -0.7313,2.52614 2.19361,2.79223 3.922,2.99169 1.72846,0.19943 3.85543,-2.19399 4.32082,-2.52635 0.46531,-0.33242 2.32716,-1.72857 2.9255,-3.45701 0.59827,-1.72844 4.58694,-2.99138 7.44554,-4.5204 2.85854,-1.52898 0.59779,-5.71697 -0.0669,-8.642 -0.66481,-2.92503 0.3323,-7.17979 0.3323,-7.17979 0,0 1.25943,-7.98374 2.95168,-17.1971 1.69231,-9.2134 0.47024,-8.17908 0.56424,-11.8456 0.008,-0.30909 0.0206,-0.59417 0.0356,-0.86962 -1.96984,-0.82046 -4.19345,-2.16492 -5.70233,-4.20013 -1.31963,-1.77993 -2.67957,-2.17659 -3.84165,-2.1784 z" />
		<path
           d="m -636.75586,190.82227 c -6.41261,2.01027 -15.06113,4.96454 -23.32422,11.33398 -5.56506,4.28999 -11.85934,7.7982 -18.64258,11.26953 3.6637,2.00652 6.56995,4.78258 8.66407,8.14063 3.15606,5.06033 4.55388,11.26972 4.87304,18.16797 0.63966,13.7964 -2.9939,30.61314 -7.50781,47.98632 -4.51396,17.37309 -9.95342,35.26991 -13.1543,50.7168 -2.34791,11.33722 -3.30885,21.3176 -2.22851,28.54492 1.55119,4.11222 3.37566,9.78982 5.21875,16.73633 0.84666,3.19127 1.30081,7.27479 1.49219,11.78125 l -0.27735,-0.0625 c 0.47006,10.28564 -0.54655,22.9286 -1.89648,33.08398 -0.21041,1.5856 -0.42604,3.13618 -0.64844,4.58008 -0.11986,0.77562 -0.24183,1.45572 -0.36328,2.18164 -0.15524,0.93106 -0.30954,1.88009 -0.46484,2.71875 -0.15481,0.83265 -0.30691,1.54058 -0.45899,2.26953 -0.44842,2.15596 -0.88473,3.97705 -1.26172,5.01368 -0.67332,1.98871 -1.38747,4.21285 -2.12109,6.59961 -0.4294,1.23858 -0.84908,2.56314 -1.20117,3.99414 -3.5884,12.22637 -7.44817,27.84359 -9.71289,41.6582 3.88374,1.01166 8.76437,2.94775 14.14062,6.61133 12.7066,8.65871 28.00066,26.83055 39.58398,64.55078 9.43965,30.7394 22.72042,49.39099 33.56446,60.36133 8.84832,8.9513 15.83657,12.69157 18.11719,13.76953 0.56764,0.37248 0.81879,0.20683 1.1875,0.0645 2.4368,-1.17054 9.28417,-4.91377 17.94921,-13.67969 10.84407,-10.97034 24.13655,-29.61211 33.57618,-60.35156 11.58332,-37.72023 26.86569,-55.90183 39.57226,-64.56055 5.32581,-3.62921 10.1704,-5.55442 14.03906,-6.57226 -2.98015,-18.33553 -8.80822,-39.93061 -13.08203,-52.55274 -0.46588,-1.28112 -1.0156,-3.56892 -1.57812,-6.50585 -0.0289,-0.15052 -0.0589,-0.3069 -0.0879,-0.46094 -0.18342,-0.97805 -0.36534,-2.10145 -0.54883,-3.20899 -0.13689,-0.82349 -0.27356,-1.6515 -0.4082,-2.53711 -0.16482,-1.08748 -0.32414,-2.23455 -0.48243,-3.40039 -1.69686,-12.48833 -2.92024,-28.9966 -1.45507,-40.13867 l -0.36524,0.10156 c 0.2429,-1.85788 0.55552,-3.57446 0.95703,-5.08789 0.97987,-3.69352 1.95659,-7.01188 2.89258,-9.9707 l -0.51562,-0.27148 c 3.61982,-6.86093 2.98554,-19.81259 -0.21485,-35.25977 -3.20046,-15.447 -8.64615,-33.34371 -13.16015,-50.7168 -4.51386,-17.37318 -8.14537,-34.18992 -7.50586,-47.98632 0.31995,-6.89825 1.72078,-13.10764 4.87695,-18.16797 2.13139,-3.4179 5.10047,-6.23394 8.85547,-8.24805 -6.53921,-3.36529 -12.61542,-6.78643 -18.00586,-10.94141 -8.34542,-6.43296 -17.07551,-9.38353 -23.50586,-11.39453 -0.44418,0.5908 -0.88709,1.16919 -1.33398,1.76758 -3.93999,5.27533 -8.09546,10.80398 -14.41602,14.76758 -14.32441,7.0351 -40.62877,7.94398 -53.75781,0 -6.32052,-3.9636 -10.47219,-9.49225 -14.41211,-14.76758 -0.48806,-0.65343 -0.97579,-1.28358 -1.46094,-1.92773 z m 70.38477,45.25585 h 0.002 c 4.80463,0.0724 9.13993,3.46043 14.49219,9.89844 l 0.25,0.29688 0.17383,0.34765 v 0.01 c 8.75428,17.03672 11.85454,30.30872 14.34374,42.72266 2.48929,12.41478 4.39151,23.9006 10.77344,38.39453 4.30306,9.77252 6.70487,17.28509 7.53516,23.2539 0.83103,5.97094 0.0836,10.73576 -2.72852,14.01172 -2.81614,3.27902 -7.10113,4.2783 -11.40039,4.1836 -4.29162,-0.0947 -8.96526,-1.18029 -13.86523,-2.66211 l -0.31641,-0.0918 -0.27734,-0.14844 c -8.88485,-4.56794 -12.73863,-3.63973 -17.39649,-3.56054 -2.3372,0.0394 -5.10136,-0.19962 -7.77539,-1.81446 -2.66046,-1.6067 -5.01165,-4.25559 -7.70898,-8.51172 l -0.0684,-0.10742 -0.0703,-0.125 v -0.01 c -5.26656,-9.95045 -5.85157,-19.85836 -5.85157,-27.93164 0,-4.02802 0.0294,-7.60986 -0.13867,-10.48243 -0.17008,-2.8726 -0.57008,-5.03874 -1.28906,-6.17383 -2.31887,-3.65936 -4.25702,-5.24284 -5.39844,-5.93554 -0.45256,-0.2746 -0.70219,-0.36172 -0.89648,-0.42774 -0.1972,0.0661 -0.44711,0.15418 -0.89844,0.42774 -1.14166,0.6927 -3.08186,2.27618 -5.40039,5.93554 -0.71932,1.13509 -1.11713,3.30163 -1.28711,6.17383 -0.17353,2.87211 -0.13867,6.45241 -0.13867,10.48047 0,8.07352 -0.5854,17.98315 -5.85156,27.9336 l -0.0586,0.125 -0.0781,0.11523 c -2.697,4.25593 -5.04232,6.90682 -7.70313,8.51367 -2.67466,1.61479 -5.44755,1.85365 -7.78515,1.81446 -4.65712,-0.0789 -8.50849,-1.00698 -17.39063,3.55859 l -0.28125,0.14648 -0.30469,0.0957 c -4.90095,1.48222 -9.58073,2.5678 -13.87304,2.66211 -4.29926,0.0951 -8.57673,-0.90478 -11.39258,-4.1836 -2.80969,-3.27552 -3.56736,-8.04034 -2.73633,-14.01172 0.83064,-5.96911 3.24021,-13.4835 7.54297,-23.25586 6.38189,-14.49373 8.27642,-25.97758 10.76562,-38.39257 2.48945,-12.41574 5.5902,-25.69015 14.34766,-42.73047 l 0.17969,-0.34766 0.24414,-0.29492 c 5.34913,-6.43474 9.68399,-9.82045 14.48437,-9.89844 v -0.002 h 0.0254 c 0.0246,0 0.0295,0.0156 0.0625,0.0156 2.40175,-0.01 4.61002,1.04308 6.17383,2.53516 1.56697,1.49558 2.63534,3.34462 3.52149,5.33398 1.775,3.98361 2.83097,8.73005 3.8164,13.1875 0.98485,4.45599 1.94402,8.69399 2.89258,10.89844 2.27623,5.29002 5.03057,7.1956 7.19336,8.0957 2.67437,0.42792 5.5946,0.93715 7.82227,0.0195 2.16831,-0.89389 4.95079,-2.79529 7.24023,-8.11524 0.94822,-2.20366 1.89949,-6.44189 2.88477,-10.89844 0.98499,-4.45756 2.04179,-9.20389 3.8164,-13.1875 0.88654,-1.99028 1.96243,-3.83894 3.5293,-5.33398 1.58252,-1.51021 3.81239,-2.5888 6.24805,-2.55274 z"
           transform="translate(202.24161,2.1690656) matrix(0.20284421,0,0,0.20284421,17.709095,32.927789)" />
	</g>
</svg>
